<svg xmlns="http://www.w3.org/2000/svg" width="240" height="70" viewBox="0 0 63.5 18.521"><path d="M11.013 10.815l-.744.165m-.294 2.83l-2.316.795 1.287.912-1.006 1.1m2.596-8.654L7.73 11.261l2.291 2.479zM9.118 4.148c-.553-.176-1.02-.336-1.038-.354-.042-.042.059-.426.442-1.681.17-.56.335-1.041.365-1.071.053-.053.748-.157 1.051-.158.096 0 .221.059.366.172l.22.172v.501c0 .565-.08 2.238-.12 2.545-.024.18-.04.2-.154.198-.07-.001-.58-.147-1.132-.324zm.627.188c-1.68-.528-1.677-.527-1.677-.615 0-.094.6-2.1.742-2.482l.088-.237.423-.055c.719-.093.753-.088.992.132l.212.195v.393c0 .462-.083 2.202-.122 2.56-.032.3-.044.302-.658.109zm-.59-.193a34.599 34.599 0 00-1.052-.328c-.065-.003-.037-.145.158-.796.471-1.582.611-1.987.693-2.01C9 .996 9.264.96 9.543.93c.556-.06.6-.047.884.257l.114.122-.058 1.335c-.075 1.747-.085 1.832-.213 1.828-.055-.001-.557-.15-1.115-.329zm.26.071A58.697 58.697 0 008.34 3.88c-.15-.043-.272-.105-.272-.138 0-.082.783-2.664.819-2.7.016-.015.286-.058.602-.094l.573-.066.212.173c.116.096.223.204.237.24.024.064-.052 1.989-.11 2.791-.024.319-.043.39-.106.388-.043 0-.439-.117-.88-.259zm-.237-.076c-.572-.182-1.058-.35-1.081-.372-.036-.035.735-2.67.8-2.734.01-.011.28-.047.598-.08l.578-.059.226.189c.183.153.226.218.225.338 0 .082-.032.745-.07 1.472-.039.728-.07 1.382-.07 1.453 0 .093-.025.13-.084.127-.045-.001-.55-.151-1.122-.334zm-.01-.01c-.576-.186-1.062-.353-1.08-.37-.025-.028.761-2.666.813-2.728.01-.01.274-.044.589-.073l.572-.055.231.184c.15.12.231.22.23.287 0 .056-.031.697-.07 1.425-.038.727-.07 1.402-.07 1.5 0 .139-.018.176-.083.172-.045-.003-.554-.157-1.131-.342zM13.49 6.85l.284 3.758m-.284-3.758l-2.539 3.975 1.77 1.003m.77-4.978zm-2.974 1.102l2.973-1.102m1.203-.3l1.12 3.273m-2.323-2.973l4.143-1.57M8.578 6.483l1.938 1.47v-3.24l2.973 2.138.501-3.174m-.634.083l-2.84.953-3.642 3.173m-.935-.384l1.904-3.625 2.673.836.167-3.408M5.62 2.725l2.222 1.152L8.78.871m0 0l1.336-.134 1.37 1.102 1.069.134.969.635.183.585-.35.567.634-.083 1.437.418-.017.434.318-.167.952.217.952.702.217.033.134.852-1.12 1.153-.334 1.353-.718 1.152-1.22.117-.634.334-.184.334-.05.501-1.002.719-.418.668-.534.284-.635-.05.334.534-.317.401-1.02.2-.116.402-.552.066.218.552-.184.183-.05.268-.451.15.317.35.217.068-.685.851.585.769-.317.25-.836-.334-.3-.45-.217-.903-.067-.484-.217-1.12-.05-.684.05-.384.267-.752.017-.869-.184-.584.217-.501-.15-.836.2-.601-.334-.986-1.57-.785L5.187 6 4.57 5.28l-.184-.418.334-.434-.267-.301.368-.702.801-.701-.033-.25-.1-.552-.084-.167.735-.568.017-.217.768-.3 1.22-.068z" fill="none" stroke="#000" stroke-width=".265"/><path d="M6.457 7.598a14.855 14.855 0 01-.31-.16c-.014-.012 1.748-3.342 1.777-3.358.016-.009.537.143 1.158.336.897.281 1.122.36 1.102.383a243.68 243.68 0 01-3.395 2.948 2.19 2.19 0 01-.332-.15z" fill="#fff" stroke="#fff" stroke-width=".023"/><path d="M10.138 4.287a47.304 47.304 0 01-1.884-.61 6.833 6.833 0 01.149-.573 91.867 91.867 0 01.525-1.743l.013-.04.702-.002.702-.001.019.022.018.021-.003.161c-.002.089-.022.52-.045.96a187.27 187.27 0 00-.076 1.551 2.074 2.074 0 01-.016.271c-.004.011-.008.01-.104-.017z" fill="red"/><path d="M9.917 4.208a48.896 48.896 0 01-1.614-.533c-.045-.029.002-.208.355-1.38.142-.47.264-.878.27-.907l.012-.053h1.42v.193c0 .106-.026.72-.057 1.363-.032.643-.059 1.219-.059 1.28 0 .136-.009.137-.327.037zM8.957 1.27c.01-.025.024-.063.034-.084l.017-.037.056-.009c.073-.011.263-.033.483-.054.403-.039.463-.044.472-.042.023.007.323.257.323.27 0 .002-.287.004-.7.004h-.7z" fill="red"/><path d="M10.192 4.3l-.127-.038a51.536 51.536 0 01-1.533-.49c-.304-.105-.276-.093-.274-.11.01-.106.338-1.228.64-2.197l.045-.143h.647c.356 0 .67-.002.699-.003l.052-.003.02.024.02.024-.005.155c-.006.191-.016.4-.06 1.295-.04.793-.049.971-.06 1.238-.008.185-.011.232-.015.247-.003.01-.02.01-.05 0z" fill="red"/><path d="M10.177 4.296a48.986 48.986 0 01-1.645-.525c-.304-.104-.276-.092-.274-.11.01-.104.344-1.249.638-2.19l.047-.15h.647c.356 0 .67 0 .699-.002l.052-.003.02.024.02.024-.005.155c-.006.188-.016.404-.057 1.217-.04.813-.049.985-.061 1.27-.01.23-.013.277-.018.293-.002.01-.02.01-.063-.003z" fill="red"/><path d="M10.198 4.302a35.784 35.784 0 01-.786-.242 30.712 30.712 0 01-1.154-.385c-.019-.019.318-1.181.646-2.23l.038-.123.7-.001.698-.001.02.02.02.021-.002.107c-.005.182-.012.337-.06 1.309-.044.869-.048.954-.06 1.232-.01.227-.013.274-.017.29-.003.008-.02.01-.043.003zM9.269 1.319z" fill="red"/><path d="M10.19 4.3c-.082-.023-.466-.14-.765-.236a29.956 29.956 0 01-1.167-.389 3.5 3.5 0 01.105-.423c.118-.423.52-1.757.593-1.967a.521.521 0 01.059-.135c.04-.012.54-.065.953-.101l.049-.004.026.019c.057.04.265.214.289.24l.008.01h-.252c-.139 0-.371.002-.517.004-.226.002-.189.002.254.002h.519l.019.022.018.022-.005.158c-.006.195-.015.386-.065 1.381l-.047.97c-.017.39-.018.408-.023.426-.003.01-.02.01-.05.001z" fill="red"/><path d="M8.305 3.465l.023-.089a69.562 69.562 0 01.617-2.055.67.67 0 01.04-.116l.019-.045c.004-.01.005-.01.028-.014.126-.019.288-.037.638-.07.21-.02.312-.03.332-.03.02 0 .02 0 .044.018.076.057.245.198.282.237l.011.012h-.03c-.018 0-.03 0-.03.003 0 .001.013.002.033.002h.032l.019.023.019.022-.002.047a56 56 0 01-.06 1.319 303.508 303.508 0 00-.036.729l-.002.012h-.99c-.94 0-.989 0-.987-.005zm1.494-2.146a5.984 5.984 0 00-.325 0 5.609 5.609 0 00.324 0z" fill="red"/><path d="M8.305 3.462c.033-.138.213-.755.404-1.385a26.382 26.382 0 01.276-.873l.019-.044.004-.01.054-.008c.101-.015.262-.033.53-.059.258-.025.389-.036.41-.036h.02l.04.03c.072.054.227.184.261.22l.016.016h-.03c-.018 0-.03 0-.03.003 0 .001.013.002.033.002h.031l.02.022.019.023-.002.05c-.008.291-.013.385-.06 1.348a447.052 447.052 0 00-.036.697l-.002.012H8.303zM9.79 1.319a4.897 4.897 0 00-.294 0 3.672 3.672 0 00.294 0z" fill="red"/><path d="M8.305 3.462a57.25 57.25 0 01.64-2.145.76.76 0 01.045-.125l.018-.042.024-.004c.141-.02.31-.04.637-.07.217-.02.313-.03.333-.03h.02l.03.023c.066.049.237.192.271.227l.016.017h-.028a.088.088 0 00-.03.003c-.001.001.01.002.03.002h.032l.02.023.02.022-.003.051c-.01.312-.01.324-.064 1.413l-.032.633-.002.01H8.303zm1.467-2.143a3.436 3.436 0 00-.256 0 3.422 3.422 0 00.256 0z" fill="red"/><path d="M6.732 3.134l-.964-.502-.055-.314a8.342 8.342 0 00-.083-.42c-.027-.104-.023-.109.315-.364.3-.225.343-.27.345-.357.001-.096.015-.106.34-.23.327-.127.36-.132.909-.162l.57-.03.232.095c.127.053.232.11.233.129.001.087-.815 2.66-.844 2.66a24.088 24.088 0 01-.998-.505z" fill="#ff0"/><path d="M12.113 5.675c-.663-.479-1.21-.883-1.215-.898-.013-.04 2.48-.867 2.71-.9.105-.015.191-.019.192-.008.008.108-.421 2.682-.447 2.68-.019-.001-.577-.395-1.24-.874zM11.927 11.207l-.763-.434.594-.928 1.094-1.712c.275-.43.506-.777.514-.769.028.028.255 3.275.242 3.461l-.014.19-.438.315a8.532 8.532 0 01-.452.313 41.395 41.395 0 01-.777-.436z" fill="green"/><path d="M8.92 12.324c-.527-.572-.959-1.053-.959-1.07 0-.016.529-.65 1.174-1.41.87-1.022 1.177-1.362 1.185-1.313.013.087-.385 4.622-.417 4.742-.022.086-.07.04-.982-.95zM8.713 17.456c-.33-.135-.344-.145-.471-.338a1.172 1.172 0 01-.152-.306c-.022-.115 0-.143.686-.88l.21-.226.137.145.136.146-.292.362c-.16.2-.293.376-.293.394-.001.017.11.176.247.353.294.382.307.41.22.456-.082.044-.028.057-.428-.106zM5.624 6.54c-.284-.57-.35-.673-.63-1-.302-.355-.448-.605-.4-.686.012-.021.087-.123.165-.227.079-.103.143-.196.143-.207a.987.987 0 00-.136-.167l-.135-.147.16-.297c.142-.261.201-.33.506-.596.19-.166.355-.297.367-.292.198.081 1.949 1.01 1.949 1.034 0 .018-.376.75-.836 1.626L5.94 7.174z" fill="maroon"/><path d="M6.445 7.59c-.232-.119-.287-.16-.27-.205.034-.092 1.707-3.262 1.737-3.293.023-.024 2.121.603 2.244.672.042.023-.293.322-3.067 2.737-.153.132-.294.24-.315.24-.02-.002-.168-.07-.329-.151zM10.69 4.325c0-.25.13-2.777.144-2.79.006-.007.142.093.302.22.16.128.307.233.327.233.162.003 1.028.137 1.087.169.041.021.25.156.462.299l.388.259.07.23.07.23-.144.232-.143.232-1.282.429-1.281.428z" fill="#f0f"/><path d="M7.898 10.448c-.1-.537-.099-.58.006-.886L8 9.28l-.183-.551-.183-.551-.258-.126c-.142-.07-.258-.137-.258-.15 0-.013.287-.273.637-.578l.708-.618.072-.063.89.673.89.673-.564.661-1.14 1.34c-.317.373-.594.698-.616.722-.033.035-.052-.018-.097-.265zM7.598 14.13c-.03-.426-.005-.595.155-1.044.124-.346.132-.394.153-.875l.022-.509.76.823c.418.453.838.905.932 1.005l.172.182-1.048.36-1.085.374c-.025.01-.045-.092-.061-.317z" fill="#0f0"/><path d="M7.949 16.221c-.02-.07-.051-.24-.07-.376-.02-.137-.068-.408-.106-.604-.038-.196-.061-.365-.051-.375.013-.013.882.58.98.668.008.007-.14.18-.329.385-.188.205-.353.385-.366.401-.013.016-.04-.028-.058-.099zM13.68 6.58c.009-.025.108-.64.22-1.368.114-.728.21-1.327.214-1.333.004-.005.262.066.573.158.311.091.571.166.577.166a1.8 1.8 0 01-.004.281c-.008.155-.003.281.01.281.014 0 .127-.054.25-.121l.226-.122.43.096.429.096.357.262c.297.219.345.267.291.287-.118.043-3.47 1.315-3.529 1.339-.04.016-.054.01-.043-.022zM10.44 10.681c.01-.061.063-.647.119-1.302.056-.655.107-1.222.115-1.26.012-.058.206-.14 1.194-.505.648-.24 1.186-.43 1.195-.42.015.015-1.994 3.188-2.161 3.413a.304.304 0 01-.203.126c-.068.013-.16.032-.202.042-.07.017-.075.01-.058-.094z" fill="#0ff"/><path d="M9.577 7.05c-.42-.32-.77-.592-.777-.605-.006-.014.338-.329.765-.701l.778-.677.009.643c.005.354.005.93 0 1.282l-.01.64zM8.484 15.004c-.258-.183-.459-.344-.445-.357.027-.028 1.2-.429 1.214-.415.004.005.062.142.127.304l.12.296-.068.072a.425.425 0 00-.087.19c-.018.11-.033.124-.205.182l-.186.062zM15.835 9.427l-.509-1.486-.492-1.438 1.422-.539c.782-.296 1.431-.53 1.442-.519.01.01.043.164.071.34l.052.32-.55.573-.55.573-.161.667-.161.667-.274.445c-.163.264-.28.425-.29.397z" fill="olive"/><path d="M10.723 7.624c0-.048-.014-.075-.033-.064-.022.014-.033-.414-.033-1.257 0-.8.012-1.274.032-1.267.04.014 2.474 1.761 2.467 1.77-.006.008-2.409.903-2.424.903-.005 0-.009-.038-.009-.085zM10.282 12.496L10.4 11.2c.01-.093.021-.1.27-.154l.261-.057.79.448c.765.433.79.45.745.518l-.152.242c-.085.14-.152.198-.344.304l-.238.132-.357-.033c-.564-.052-.547-.07-.302.317l.208.33-.063.083-.11.143c-.031.04-.173.084-.455.14a9.962 9.962 0 01-.443.081c-.022 0 .004-.422.073-1.198zM13.885 10.051a59.662 59.662 0 01-.118-1.499 78.33 78.33 0 00-.116-1.509c-.014-.084 0-.093.436-.257.25-.094.46-.156.47-.139.047.076 1.035 3.017 1.02 3.033-.01.01-.246.04-.524.067-.494.05-.511.054-.805.205-.165.085-.311.16-.324.165-.013.006-.03-.024-.04-.066z" fill="#f55"/><text style="line-height:0;-inkscape-font-specification:'sans-serif Bold';white-space:pre;inline-size:41.7339" x="25.268" y="4.167" transform="translate(-2.91 2.778)" font-weight="700" font-size="10.583" font-family="sans-serif" fill="#fff" stroke-width=".265"><tspan x="25.268" y="4.167"><tspan style="line-height:1.15;-inkscape-font-specification:'sans-serif Bold'" font-size="6.35">SurAmerica</tspan></tspan></text><path fill="#00f" d="M20.505 9.525h41.01v.992h-41.01z"/><text style="line-height:1.25" x="23.68" y="15.743" font-weight="400" font-size="4.233" font-family="sans-serif" letter-spacing="2.029" fill="#fff" stroke-width=".265"><tspan x="23.68" y="15.743">AIRLINES</tspan></text></svg>